<svg width="1681" height="1026" viewBox="0 0 1681 1026" fill="none" xmlns="http://www.w3.org/2000/svg">
<path id="Vector 1" d="M982.451 1.81423C988.951 14.3142 1063.95 66.3142 1067.95 81.3142L1155.95 14.8142H1346.45C1410.78 39.1476 1544.55 32.5142 1564.95 51.3142C1590.45 74.8142 1594.95 231.314 1564.95 267.814C1534.95 304.314 1693.45 332.314 1646.45 349.314C1625.13 357.026 1513.95 404.814 1539.45 413.314C1564.95 421.814 1618.45 565.314 1646.45 603.814C1674.45 642.314 1727.95 736.814 1586.45 721.814C1444.95 706.814 1433.95 824.814 1444.95 835.314C1455.95 845.814 1357.45 1004.81 1346.45 1021.81C1335.45 1038.81 802.451 976.814 744.451 974.814C686.451 972.814 296.951 1021.81 213.451 1006.81C129.951 991.814 176.951 764.314 176.951 745.314C176.951 726.314 20.4511 678.814 3.45108 668.314C-13.5489 657.814 63.4511 286.814 63.4511 267.814C63.4511 252.614 186.951 52.8142 236.951 38.3142L440.451 81.3142C571.784 77.1476 977.251 -8.18577 982.451 1.81423Z" fill="url(#paint0_linear_2_75)" stroke="url(#paint1_linear_2_75)"/>
<defs>
<linearGradient id="paint0_linear_2_75" x1="1292.95" y1="16.8145" x2="245.451" y2="828.815" gradientUnits="userSpaceOnUse">
<stop stop-color="#3CED63"/>
<stop offset="1" stop-color="#51ACDF" stop-opacity="0.47"/>
</linearGradient>
<linearGradient id="paint1_linear_2_75" x1="857.543" y1="-3.70728" x2="857.543" y2="1039.45" gradientUnits="userSpaceOnUse">
<stop stop-color="#1FDE82"/>
<stop offset="1" stop-color="#28E68B" stop-opacity="0"/>
</linearGradient>
</defs>
</svg>
